<mxfile host="app.diagrams.net" modified="2024-03-07T06:29:33.551Z" agent="Mozilla/5.0 (Windows NT 10.0; Win64; x64) AppleWebKit/537.36 (KHTML, like Gecko) Chrome/122.0.0.0 Safari/537.36" etag="9Q0-t6wvxALMlFEZEkLp" version="24.0.1" type="device">
  <diagram name="Page-1" id="PAn3jnZ152aihaRhds98">
    <mxGraphModel dx="2097" dy="1749" grid="1" gridSize="10" guides="1" tooltips="1" connect="1" arrows="1" fold="1" page="1" pageScale="1" pageWidth="850" pageHeight="1100" math="0" shadow="0">
      <root>
        <mxCell id="0" />
        <mxCell id="1" parent="0" />
        <mxCell id="uaIav4gc_AnLofq1c2mx-1" value="Retailer" style="rounded=0;whiteSpace=wrap;html=1;" parent="1" vertex="1">
          <mxGeometry x="10" y="-410" width="120" height="60" as="geometry" />
        </mxCell>
        <mxCell id="uaIav4gc_AnLofq1c2mx-3" value="Manufacturer" style="rounded=0;whiteSpace=wrap;html=1;" parent="1" vertex="1">
          <mxGeometry x="10" y="-580" width="120" height="60" as="geometry" />
        </mxCell>
        <mxCell id="uaIav4gc_AnLofq1c2mx-4" value="Distributor" style="rounded=0;whiteSpace=wrap;html=1;" parent="1" vertex="1">
          <mxGeometry x="10" y="-490" width="120" height="60" as="geometry" />
        </mxCell>
        <mxCell id="uaIav4gc_AnLofq1c2mx-5" value="Consumer" style="rounded=0;whiteSpace=wrap;html=1;" parent="1" vertex="1">
          <mxGeometry x="10" y="-320" width="120" height="60" as="geometry" />
        </mxCell>
        <mxCell id="uaIav4gc_AnLofq1c2mx-6" value="Owner" style="rounded=0;whiteSpace=wrap;html=1;" parent="1" vertex="1">
          <mxGeometry x="-270" y="-460" width="120" height="60" as="geometry" />
        </mxCell>
        <mxCell id="uaIav4gc_AnLofq1c2mx-27" value="" style="edgeStyle=orthogonalEdgeStyle;rounded=0;orthogonalLoop=1;jettySize=auto;html=1;" parent="1" source="uaIav4gc_AnLofq1c2mx-7" target="uaIav4gc_AnLofq1c2mx-8" edge="1">
          <mxGeometry relative="1" as="geometry" />
        </mxCell>
        <mxCell id="uaIav4gc_AnLofq1c2mx-30" value="" style="edgeStyle=orthogonalEdgeStyle;rounded=0;orthogonalLoop=1;jettySize=auto;html=1;" parent="1" source="uaIav4gc_AnLofq1c2mx-7" target="uaIav4gc_AnLofq1c2mx-28" edge="1">
          <mxGeometry relative="1" as="geometry" />
        </mxCell>
        <mxCell id="uaIav4gc_AnLofq1c2mx-7" value="Transaction&lt;br&gt;(Validated by appropriate applicant using testing ETH)" style="rounded=0;whiteSpace=wrap;html=1;" parent="1" vertex="1">
          <mxGeometry x="300" y="-460" width="120" height="60" as="geometry" />
        </mxCell>
        <mxCell id="uaIav4gc_AnLofq1c2mx-8" value="Frontend&lt;br&gt;(React / Web3.js)" style="rounded=0;whiteSpace=wrap;html=1;" parent="1" vertex="1">
          <mxGeometry x="500" y="-460" width="120" height="60" as="geometry" />
        </mxCell>
        <mxCell id="uaIav4gc_AnLofq1c2mx-9" value="" style="endArrow=classic;html=1;rounded=0;exitX=1;exitY=0;exitDx=0;exitDy=0;entryX=0;entryY=1;entryDx=0;entryDy=0;" parent="1" source="uaIav4gc_AnLofq1c2mx-6" target="uaIav4gc_AnLofq1c2mx-3" edge="1">
          <mxGeometry width="50" height="50" relative="1" as="geometry">
            <mxPoint x="260" y="-390" as="sourcePoint" />
            <mxPoint x="310" y="-440" as="targetPoint" />
          </mxGeometry>
        </mxCell>
        <mxCell id="uaIav4gc_AnLofq1c2mx-11" value="" style="endArrow=classic;html=1;rounded=0;exitX=1;exitY=0.25;exitDx=0;exitDy=0;entryX=0;entryY=0.5;entryDx=0;entryDy=0;" parent="1" source="uaIav4gc_AnLofq1c2mx-6" target="uaIav4gc_AnLofq1c2mx-4" edge="1">
          <mxGeometry width="50" height="50" relative="1" as="geometry">
            <mxPoint x="-190" y="-420" as="sourcePoint" />
            <mxPoint x="-60" y="-490" as="targetPoint" />
          </mxGeometry>
        </mxCell>
        <mxCell id="uaIav4gc_AnLofq1c2mx-12" value="" style="endArrow=classic;html=1;rounded=0;exitX=1;exitY=0.617;exitDx=0;exitDy=0;entryX=0;entryY=0.5;entryDx=0;entryDy=0;exitPerimeter=0;" parent="1" source="uaIav4gc_AnLofq1c2mx-6" target="uaIav4gc_AnLofq1c2mx-1" edge="1">
          <mxGeometry width="50" height="50" relative="1" as="geometry">
            <mxPoint x="-180" y="-410" as="sourcePoint" />
            <mxPoint x="-50" y="-480" as="targetPoint" />
          </mxGeometry>
        </mxCell>
        <mxCell id="uaIav4gc_AnLofq1c2mx-13" value="" style="endArrow=classic;html=1;rounded=0;exitX=1;exitY=1;exitDx=0;exitDy=0;entryX=0;entryY=0;entryDx=0;entryDy=0;" parent="1" source="uaIav4gc_AnLofq1c2mx-6" target="uaIav4gc_AnLofq1c2mx-5" edge="1">
          <mxGeometry width="50" height="50" relative="1" as="geometry">
            <mxPoint x="-170" y="-400" as="sourcePoint" />
            <mxPoint x="-40" y="-470" as="targetPoint" />
          </mxGeometry>
        </mxCell>
        <mxCell id="uaIav4gc_AnLofq1c2mx-14" value="" style="endArrow=classic;html=1;rounded=0;exitX=1;exitY=1;exitDx=0;exitDy=0;entryX=0;entryY=0;entryDx=0;entryDy=0;" parent="1" source="uaIav4gc_AnLofq1c2mx-3" target="uaIav4gc_AnLofq1c2mx-7" edge="1">
          <mxGeometry width="50" height="50" relative="1" as="geometry">
            <mxPoint x="260" y="-390" as="sourcePoint" />
            <mxPoint x="310" y="-440" as="targetPoint" />
          </mxGeometry>
        </mxCell>
        <mxCell id="uaIav4gc_AnLofq1c2mx-15" value="" style="endArrow=classic;html=1;rounded=0;exitX=1.008;exitY=0.617;exitDx=0;exitDy=0;exitPerimeter=0;entryX=-0.008;entryY=0.367;entryDx=0;entryDy=0;entryPerimeter=0;" parent="1" source="uaIav4gc_AnLofq1c2mx-4" target="uaIav4gc_AnLofq1c2mx-7" edge="1">
          <mxGeometry width="50" height="50" relative="1" as="geometry">
            <mxPoint x="260" y="-390" as="sourcePoint" />
            <mxPoint x="310" y="-440" as="targetPoint" />
          </mxGeometry>
        </mxCell>
        <mxCell id="uaIav4gc_AnLofq1c2mx-16" value="" style="endArrow=classic;html=1;rounded=0;exitX=1;exitY=0.5;exitDx=0;exitDy=0;entryX=-0.008;entryY=0.633;entryDx=0;entryDy=0;entryPerimeter=0;" parent="1" source="uaIav4gc_AnLofq1c2mx-1" target="uaIav4gc_AnLofq1c2mx-7" edge="1">
          <mxGeometry width="50" height="50" relative="1" as="geometry">
            <mxPoint x="61" y="-443" as="sourcePoint" />
            <mxPoint x="149" y="-398" as="targetPoint" />
          </mxGeometry>
        </mxCell>
        <mxCell id="uaIav4gc_AnLofq1c2mx-17" value="" style="endArrow=classic;html=1;rounded=0;exitX=1;exitY=0;exitDx=0;exitDy=0;entryX=0;entryY=1;entryDx=0;entryDy=0;" parent="1" source="uaIav4gc_AnLofq1c2mx-5" target="uaIav4gc_AnLofq1c2mx-7" edge="1">
          <mxGeometry width="50" height="50" relative="1" as="geometry">
            <mxPoint x="71" y="-433" as="sourcePoint" />
            <mxPoint x="159" y="-388" as="targetPoint" />
          </mxGeometry>
        </mxCell>
        <mxCell id="uaIav4gc_AnLofq1c2mx-18" value="Register Applicants using Software Cryptocurrency Wallets (Metamask)" style="text;html=1;align=center;verticalAlign=middle;whiteSpace=wrap;rounded=0;" parent="1" vertex="1">
          <mxGeometry x="-260" y="-535" width="110" height="75" as="geometry" />
        </mxCell>
        <mxCell id="uaIav4gc_AnLofq1c2mx-22" value="Smart Contracts" style="text;html=1;align=center;verticalAlign=middle;whiteSpace=wrap;rounded=0;" parent="1" vertex="1">
          <mxGeometry x="180" y="-530" width="100" height="30" as="geometry" />
        </mxCell>
        <mxCell id="uaIav4gc_AnLofq1c2mx-23" value="Smart Contracts" style="text;html=1;align=center;verticalAlign=middle;whiteSpace=wrap;rounded=0;" parent="1" vertex="1">
          <mxGeometry x="180" y="-350" width="100" height="30" as="geometry" />
        </mxCell>
        <mxCell id="uaIav4gc_AnLofq1c2mx-24" value="Smart Contracts" style="text;html=1;align=center;verticalAlign=middle;whiteSpace=wrap;rounded=0;" parent="1" vertex="1">
          <mxGeometry x="140" y="-485" width="100" height="30" as="geometry" />
        </mxCell>
        <mxCell id="uaIav4gc_AnLofq1c2mx-25" value="Smart Contracts" style="text;html=1;align=center;verticalAlign=middle;whiteSpace=wrap;rounded=0;" parent="1" vertex="1">
          <mxGeometry x="140" y="-440" width="100" height="30" as="geometry" />
        </mxCell>
        <mxCell id="uaIav4gc_AnLofq1c2mx-28" value="Transaction History&lt;br&gt;(Ganache)" style="rounded=0;whiteSpace=wrap;html=1;" parent="1" vertex="1">
          <mxGeometry x="300" y="-320" width="120" height="60" as="geometry" />
        </mxCell>
        <mxCell id="uaIav4gc_AnLofq1c2mx-29" value="Metamask Tranasactions" style="rounded=0;whiteSpace=wrap;html=1;" parent="1" vertex="1">
          <mxGeometry x="300" y="-260" width="120" height="60" as="geometry" />
        </mxCell>
        <mxCell id="uaIav4gc_AnLofq1c2mx-34" value="&lt;span style=&quot;background-color: rgb(255, 255, 255); color: rgb(31, 35, 40);&quot;&gt;Programming Language: Solidity, React, Web3.js&lt;/span&gt;&lt;br&gt;&lt;span style=&quot;background-color: rgb(255, 255, 255); color: rgb(31, 35, 40);&quot;&gt;Blockchain: Private&lt;/span&gt;&lt;br&gt;&lt;span style=&quot;background-color: rgb(255, 255, 255); color: rgb(31, 35, 40);&quot;&gt;Consensus mechanism: PoW (Proof of Work)&lt;/span&gt;&lt;br&gt;&lt;span style=&quot;background-color: rgb(255, 255, 255); color: rgb(31, 35, 40);&quot;&gt;Wallet: Metamask&lt;/span&gt;&lt;br&gt;&lt;span style=&quot;background-color: rgb(255, 255, 255); color: rgb(31, 35, 40);&quot;&gt;Ethereum for testing: Ganache&lt;/span&gt;&lt;br&gt;&lt;span style=&quot;background-color: rgb(255, 255, 255); color: rgb(31, 35, 40);&quot;&gt;Contract Deployment: Truffle&lt;/span&gt;&lt;br&gt;&lt;span style=&quot;background-color: rgb(255, 255, 255); color: rgb(31, 35, 40);&quot;&gt;Users: Manufacturers, Distributors, Retailers, Consumers&lt;br&gt;Verification of Users: Owner of the private blockchain&lt;br&gt;&lt;br&gt;&lt;/span&gt;&lt;br&gt;Softwares Used:&lt;br&gt;&lt;span style=&quot;background-color: rgb(255, 255, 255); color: rgb(31, 35, 40);&quot;&gt;npm (package installation + react server starting)&lt;/span&gt;&lt;br&gt;&lt;span style=&quot;background-color: rgb(255, 255, 255); color: rgb(31, 35, 40);&quot;&gt;truffle + ganache (local ethereum network)&lt;/span&gt;&lt;br&gt;&lt;span style=&quot;background-color: rgb(255, 255, 255); color: rgb(31, 35, 40);&quot;&gt;react (front end framework)&lt;/span&gt;&lt;br&gt;&lt;span style=&quot;background-color: rgb(255, 255, 255); color: rgb(31, 35, 40);&quot;&gt;web3 (connections to Metamask + ethereum network)&lt;/span&gt;&lt;br&gt;&lt;span style=&quot;background-color: rgb(255, 255, 255); color: rgb(31, 35, 40);&quot;&gt;Metamask (connection point to ethereum node)&lt;br&gt;&lt;/span&gt;&lt;br&gt;Purpose:&lt;br&gt;To develop and ensure trust throughout the complex supply chain system&lt;br&gt;Authentication and Accountability through RBAC enables only the required role to take action and update the activity accordingly&lt;br&gt;All transactions are validated and can be traced back on the private ethereum blockchain&lt;br&gt;Visibility of medicinal product on the interface&lt;br&gt;&lt;br&gt;&lt;div style=&quot;&quot;&gt;&lt;/div&gt;" style="text;html=1;align=left;verticalAlign=middle;whiteSpace=wrap;rounded=0;" parent="1" vertex="1">
          <mxGeometry x="710" y="-620" width="300" height="170" as="geometry" />
        </mxCell>
        <mxCell id="Eg1_4HkuTwI5Zw3jaDJK-2" value="RPC Network" style="text;html=1;align=center;verticalAlign=middle;whiteSpace=wrap;rounded=0;" parent="1" vertex="1">
          <mxGeometry x="370" y="-380" width="60" height="30" as="geometry" />
        </mxCell>
        <mxCell id="Eg1_4HkuTwI5Zw3jaDJK-6" value="HTTP" style="text;html=1;align=center;verticalAlign=middle;whiteSpace=wrap;rounded=0;" parent="1" vertex="1">
          <mxGeometry x="425" y="-460" width="60" height="30" as="geometry" />
        </mxCell>
        <mxCell id="L3ylz6vq-BuCEMuysDuQ-8" value="" style="edgeStyle=orthogonalEdgeStyle;rounded=0;orthogonalLoop=1;jettySize=auto;html=1;" parent="1" source="L3ylz6vq-BuCEMuysDuQ-1" target="L3ylz6vq-BuCEMuysDuQ-4" edge="1">
          <mxGeometry relative="1" as="geometry" />
        </mxCell>
        <mxCell id="L3ylz6vq-BuCEMuysDuQ-1" value="Owner" style="rounded=0;whiteSpace=wrap;html=1;" parent="1" vertex="1">
          <mxGeometry x="-200" y="-990" width="120" height="60" as="geometry" />
        </mxCell>
        <mxCell id="L3ylz6vq-BuCEMuysDuQ-2" value="Stages" style="rounded=0;whiteSpace=wrap;html=1;" parent="1" vertex="1">
          <mxGeometry x="485" y="-990" width="120" height="60" as="geometry" />
        </mxCell>
        <mxCell id="L3ylz6vq-BuCEMuysDuQ-14" value="" style="edgeStyle=orthogonalEdgeStyle;rounded=0;orthogonalLoop=1;jettySize=auto;html=1;" parent="1" source="L3ylz6vq-BuCEMuysDuQ-3" target="L3ylz6vq-BuCEMuysDuQ-2" edge="1">
          <mxGeometry relative="1" as="geometry" />
        </mxCell>
        <mxCell id="L3ylz6vq-BuCEMuysDuQ-3" value="Blockchain" style="rounded=0;whiteSpace=wrap;html=1;" parent="1" vertex="1">
          <mxGeometry x="250" y="-990" width="120" height="60" as="geometry" />
        </mxCell>
        <mxCell id="L3ylz6vq-BuCEMuysDuQ-9" value="" style="edgeStyle=orthogonalEdgeStyle;rounded=0;orthogonalLoop=1;jettySize=auto;html=1;" parent="1" source="L3ylz6vq-BuCEMuysDuQ-4" target="L3ylz6vq-BuCEMuysDuQ-5" edge="1">
          <mxGeometry relative="1" as="geometry" />
        </mxCell>
        <mxCell id="L3ylz6vq-BuCEMuysDuQ-12" value="" style="edgeStyle=orthogonalEdgeStyle;rounded=0;orthogonalLoop=1;jettySize=auto;html=1;" parent="1" source="L3ylz6vq-BuCEMuysDuQ-4" target="L3ylz6vq-BuCEMuysDuQ-3" edge="1">
          <mxGeometry relative="1" as="geometry" />
        </mxCell>
        <mxCell id="L3ylz6vq-BuCEMuysDuQ-4" value="Smart Contract" style="rounded=0;whiteSpace=wrap;html=1;" parent="1" vertex="1">
          <mxGeometry x="30" y="-990" width="120" height="60" as="geometry" />
        </mxCell>
        <mxCell id="L3ylz6vq-BuCEMuysDuQ-10" value="" style="edgeStyle=orthogonalEdgeStyle;rounded=0;orthogonalLoop=1;jettySize=auto;html=1;" parent="1" source="L3ylz6vq-BuCEMuysDuQ-5" target="L3ylz6vq-BuCEMuysDuQ-6" edge="1">
          <mxGeometry relative="1" as="geometry" />
        </mxCell>
        <mxCell id="L3ylz6vq-BuCEMuysDuQ-5" value="Raw Material&lt;br&gt;Manufacturer&lt;br&gt;Distributor&lt;br&gt;Retailer" style="rounded=0;whiteSpace=wrap;html=1;" parent="1" vertex="1">
          <mxGeometry x="25" y="-832.5" width="130" height="75" as="geometry" />
        </mxCell>
        <mxCell id="L3ylz6vq-BuCEMuysDuQ-13" value="" style="edgeStyle=orthogonalEdgeStyle;rounded=0;orthogonalLoop=1;jettySize=auto;html=1;" parent="1" source="L3ylz6vq-BuCEMuysDuQ-6" target="L3ylz6vq-BuCEMuysDuQ-3" edge="1">
          <mxGeometry relative="1" as="geometry" />
        </mxCell>
        <mxCell id="L3ylz6vq-BuCEMuysDuQ-6" value="Owner registers &lt;br&gt;supply chain members" style="rhombus;whiteSpace=wrap;html=1;" parent="1" vertex="1">
          <mxGeometry x="230" y="-870" width="160" height="150" as="geometry" />
        </mxCell>
        <mxCell id="L3ylz6vq-BuCEMuysDuQ-15" value="Create&lt;br&gt;Contract" style="text;html=1;align=center;verticalAlign=middle;whiteSpace=wrap;rounded=0;" parent="1" vertex="1">
          <mxGeometry x="-60" y="-1000" width="60" height="30" as="geometry" />
        </mxCell>
        <mxCell id="L3ylz6vq-BuCEMuysDuQ-16" value="Deploy Contract" style="text;html=1;align=center;verticalAlign=middle;whiteSpace=wrap;rounded=0;" parent="1" vertex="1">
          <mxGeometry x="170" y="-1000" width="60" height="30" as="geometry" />
        </mxCell>
        <mxCell id="L3ylz6vq-BuCEMuysDuQ-17" value="Registration" style="text;html=1;align=center;verticalAlign=middle;whiteSpace=wrap;rounded=0;" parent="1" vertex="1">
          <mxGeometry x="170" y="-780" width="60" height="30" as="geometry" />
        </mxCell>
        <mxCell id="L3ylz6vq-BuCEMuysDuQ-18" value="Supply Chain Members" style="text;html=1;align=center;verticalAlign=middle;whiteSpace=wrap;rounded=0;" parent="1" vertex="1">
          <mxGeometry x="40" y="-750" width="100" height="40" as="geometry" />
        </mxCell>
        <mxCell id="HuvPyexvWib7eKGZbqq8-1" value="" style="shape=partialRectangle;whiteSpace=wrap;html=1;right=0;top=0;bottom=0;fillColor=none;routingCenterX=-0.5;" vertex="1" parent="1">
          <mxGeometry x="1340" y="-740" width="160" height="500" as="geometry" />
        </mxCell>
        <mxCell id="HuvPyexvWib7eKGZbqq8-2" value="" style="shape=partialRectangle;whiteSpace=wrap;html=1;right=0;top=0;bottom=0;fillColor=none;routingCenterX=-0.5;" vertex="1" parent="1">
          <mxGeometry x="1500" y="-745" width="160" height="500" as="geometry" />
        </mxCell>
        <mxCell id="HuvPyexvWib7eKGZbqq8-3" value="" style="shape=partialRectangle;whiteSpace=wrap;html=1;right=0;top=0;bottom=0;fillColor=none;routingCenterX=-0.5;" vertex="1" parent="1">
          <mxGeometry x="1660" y="-745" width="160" height="500" as="geometry" />
        </mxCell>
        <mxCell id="HuvPyexvWib7eKGZbqq8-4" value="" style="shape=partialRectangle;whiteSpace=wrap;html=1;right=0;top=0;bottom=0;fillColor=none;routingCenterX=-0.5;" vertex="1" parent="1">
          <mxGeometry x="1820" y="-740" width="160" height="500" as="geometry" />
        </mxCell>
        <mxCell id="HuvPyexvWib7eKGZbqq8-6" value="Owner" style="rounded=0;whiteSpace=wrap;html=1;" vertex="1" parent="1">
          <mxGeometry x="1195" y="-800" width="120" height="60" as="geometry" />
        </mxCell>
        <mxCell id="HuvPyexvWib7eKGZbqq8-7" value="Raw Material Supplier" style="rounded=0;whiteSpace=wrap;html=1;" vertex="1" parent="1">
          <mxGeometry x="1360" y="-800" width="130" height="60" as="geometry" />
        </mxCell>
        <mxCell id="HuvPyexvWib7eKGZbqq8-8" value="Manufacturer" style="rounded=0;whiteSpace=wrap;html=1;" vertex="1" parent="1">
          <mxGeometry x="1530" y="-800" width="120" height="60" as="geometry" />
        </mxCell>
        <mxCell id="HuvPyexvWib7eKGZbqq8-9" value="Distributor" style="rounded=0;whiteSpace=wrap;html=1;" vertex="1" parent="1">
          <mxGeometry x="1680" y="-800" width="120" height="60" as="geometry" />
        </mxCell>
        <mxCell id="HuvPyexvWib7eKGZbqq8-10" value="Retailer" style="rounded=0;whiteSpace=wrap;html=1;" vertex="1" parent="1">
          <mxGeometry x="1830" y="-800" width="120" height="60" as="geometry" />
        </mxCell>
        <mxCell id="HuvPyexvWib7eKGZbqq8-13" value="addRawMaterialSupplier()&lt;span style=&quot;color: rgba(0, 0, 0, 0); font-family: monospace; font-size: 0px; text-wrap: nowrap;&quot;&gt;%3CmxGraphModel%3E%3Croot%3E%3CmxCell%20id%3D%220%22%2F%3E%3CmxCell%20id%3D%221%22%20parent%3D%220%22%2F%3E%3CmxCell%20id%3D%222%22%20value%3D%22%22%20style%3D%22rounded%3D0%3BwhiteSpace%3Dwrap%3Bhtml%3D1%3B%22%20vertex%3D%221%22%20parent%3D%221%22%3E%3CmxGeometry%20x%3D%221215%22%20y%3D%22-800%22%20width%3D%22120%22%20height%3D%2260%22%20as%3D%22geometry%22%2F%3E%3C%2FmxCell%3E%3C%2Froot%3E%3C%2FmxGraphModel%3E&lt;/span&gt;&lt;span style=&quot;color: rgba(0, 0, 0, 0); font-family: monospace; font-size: 0px; text-wrap: nowrap;&quot;&gt;%3CmxGraphModel%3E%3Croot%3E%3CmxCell%20id%3D%220%22%2F%3E%3CmxCell%20id%3D%221%22%20parent%3D%220%22%2F%3E%3CmxCell%20id%3D%222%22%20value%3D%22%22%20style%3D%22rounded%3D0%3BwhiteSpace%3Dwrap%3Bhtml%3D1%3B%22%20vertex%3D%221%22%20parent%3D%221%22%3E%3CmxGeometry%20x%3D%221215%22%20y%3D%22-800%22%20width%3D%22120%22%20height%3D%2260%22%20as%3D%22geometry%22%2F%3E%3C%2FmxCell%3E%3C%2Froot%3E%3C%2FmxGraphModel%3E&lt;/span&gt;" style="text;html=1;align=center;verticalAlign=middle;whiteSpace=wrap;rounded=0;" vertex="1" parent="1">
          <mxGeometry x="1235" y="-710" width="60" height="30" as="geometry" />
        </mxCell>
        <mxCell id="HuvPyexvWib7eKGZbqq8-16" value="addManufacturer()" style="text;html=1;align=center;verticalAlign=middle;whiteSpace=wrap;rounded=0;" vertex="1" parent="1">
          <mxGeometry x="1220" y="-680" width="60" height="30" as="geometry" />
        </mxCell>
        <mxCell id="HuvPyexvWib7eKGZbqq8-17" value="addDistributor()" style="text;html=1;align=center;verticalAlign=middle;whiteSpace=wrap;rounded=0;" vertex="1" parent="1">
          <mxGeometry x="1215" y="-640" width="60" height="20" as="geometry" />
        </mxCell>
        <mxCell id="HuvPyexvWib7eKGZbqq8-18" value="addRetailer()" style="text;html=1;align=center;verticalAlign=middle;whiteSpace=wrap;rounded=0;" vertex="1" parent="1">
          <mxGeometry x="1210" y="-610" width="60" height="30" as="geometry" />
        </mxCell>
        <mxCell id="HuvPyexvWib7eKGZbqq8-20" value="addMedicine()" style="text;html=1;align=center;verticalAlign=middle;whiteSpace=wrap;rounded=0;" vertex="1" parent="1">
          <mxGeometry x="1215" y="-580" width="60" height="30" as="geometry" />
        </mxCell>
        <mxCell id="HuvPyexvWib7eKGZbqq8-21" value="findRawMaterialSupplier()" style="text;html=1;align=center;verticalAlign=middle;whiteSpace=wrap;rounded=0;" vertex="1" parent="1">
          <mxGeometry x="1400" y="-540" width="60" height="30" as="geometry" />
        </mxCell>
        <mxCell id="HuvPyexvWib7eKGZbqq8-22" value="RMSupplyCheck()" style="text;whiteSpace=wrap;" vertex="1" parent="1">
          <mxGeometry x="1360" y="-515" width="80" height="40" as="geometry" />
        </mxCell>
        <mxCell id="HuvPyexvWib7eKGZbqq8-24" value="findManufacturer()" style="text;html=1;align=center;verticalAlign=middle;whiteSpace=wrap;rounded=0;" vertex="1" parent="1">
          <mxGeometry x="1550" y="-475" width="60" height="30" as="geometry" />
        </mxCell>
        <mxCell id="HuvPyexvWib7eKGZbqq8-25" value="Manufacture()" style="text;html=1;align=center;verticalAlign=middle;whiteSpace=wrap;rounded=0;" vertex="1" parent="1">
          <mxGeometry x="1540" y="-445" width="60" height="30" as="geometry" />
        </mxCell>
        <mxCell id="HuvPyexvWib7eKGZbqq8-26" value="Distribute()" style="text;html=1;align=center;verticalAlign=middle;whiteSpace=wrap;rounded=0;" vertex="1" parent="1">
          <mxGeometry x="1690" y="-385" width="60" height="30" as="geometry" />
        </mxCell>
        <mxCell id="HuvPyexvWib7eKGZbqq8-27" value="findDistributor()" style="text;html=1;align=center;verticalAlign=middle;whiteSpace=wrap;rounded=0;" vertex="1" parent="1">
          <mxGeometry x="1700" y="-410" width="60" height="30" as="geometry" />
        </mxCell>
        <mxCell id="HuvPyexvWib7eKGZbqq8-28" value="Retail()&lt;span style=&quot;color: rgba(0, 0, 0, 0); font-family: monospace; font-size: 0px; text-align: start; text-wrap: nowrap;&quot;&gt;%3CmxGraphModel%3E%3Croot%3E%3CmxCell%20id%3D%220%22%2F%3E%3CmxCell%20id%3D%221%22%20parent%3D%220%22%2F%3E%3CmxCell%20id%3D%222%22%20value%3D%22findRawMaterialSsupplier()%22%20style%3D%22text%3Bhtml%3D1%3Balign%3Dcenter%3BverticalAlign%3Dmiddle%3BwhiteSpace%3Dwrap%3Brounded%3D0%3B%22%20vertex%3D%221%22%20parent%3D%221%22%3E%3CmxGeometry%20x%3D%221710%22%20y%3D%22-380%22%20width%3D%2260%22%20height%3D%2230%22%20as%3D%22geometry%22%2F%3E%3C%2FmxCell%3E%3C%2Froot%3E%3C%2FmxGraphModel%3E&lt;/span&gt;" style="text;html=1;align=center;verticalAlign=middle;whiteSpace=wrap;rounded=0;" vertex="1" parent="1">
          <mxGeometry x="1860" y="-350" width="60" height="30" as="geometry" />
        </mxCell>
        <mxCell id="HuvPyexvWib7eKGZbqq8-29" value="findRetailer()" style="text;html=1;align=center;verticalAlign=middle;whiteSpace=wrap;rounded=0;" vertex="1" parent="1">
          <mxGeometry x="1870" y="-370" width="60" height="30" as="geometry" />
        </mxCell>
        <mxCell id="HuvPyexvWib7eKGZbqq8-30" value="Sold()" style="text;html=1;align=center;verticalAlign=middle;whiteSpace=wrap;rounded=0;" vertex="1" parent="1">
          <mxGeometry x="1860" y="-330" width="60" height="30" as="geometry" />
        </mxCell>
        <mxCell id="HuvPyexvWib7eKGZbqq8-31" value="&lt;font style=&quot;font-size: 20px;&quot;&gt;UserActions&lt;/font&gt;" style="text;html=1;align=center;verticalAlign=middle;whiteSpace=wrap;rounded=0;" vertex="1" parent="1">
          <mxGeometry x="1245" y="-862.5" width="60" height="30" as="geometry" />
        </mxCell>
        <mxCell id="HuvPyexvWib7eKGZbqq8-33" value="" style="rounded=1;whiteSpace=wrap;html=1;direction=south;" vertex="1" parent="1">
          <mxGeometry x="1330" y="-580" width="20" height="110" as="geometry" />
        </mxCell>
        <mxCell id="HuvPyexvWib7eKGZbqq8-35" value="" style="rounded=1;whiteSpace=wrap;html=1;direction=south;" vertex="1" parent="1">
          <mxGeometry x="1650" y="-455" width="20" height="105" as="geometry" />
        </mxCell>
        <mxCell id="HuvPyexvWib7eKGZbqq8-36" value="" style="rounded=1;whiteSpace=wrap;html=1;direction=south;" vertex="1" parent="1">
          <mxGeometry x="1500" y="-520" width="20" height="100" as="geometry" />
        </mxCell>
        <mxCell id="HuvPyexvWib7eKGZbqq8-37" value="" style="rounded=1;whiteSpace=wrap;html=1;direction=south;" vertex="1" parent="1">
          <mxGeometry x="1810" y="-375" width="20" height="95" as="geometry" />
        </mxCell>
        <mxCell id="HuvPyexvWib7eKGZbqq8-40" value="" style="endArrow=classic;html=1;rounded=0;" edge="1" parent="1">
          <mxGeometry width="50" height="50" relative="1" as="geometry">
            <mxPoint x="1300" y="-565.43" as="sourcePoint" />
            <mxPoint x="1330" y="-565.43" as="targetPoint" />
          </mxGeometry>
        </mxCell>
        <mxCell id="HuvPyexvWib7eKGZbqq8-46" value="" style="endArrow=classic;html=1;rounded=0;" edge="1" parent="1">
          <mxGeometry width="50" height="50" relative="1" as="geometry">
            <mxPoint x="1860" y="-315" as="sourcePoint" />
            <mxPoint x="1840" y="-315" as="targetPoint" />
            <Array as="points">
              <mxPoint x="1870" y="-315" />
            </Array>
          </mxGeometry>
        </mxCell>
        <mxCell id="HuvPyexvWib7eKGZbqq8-49" value="" style="endArrow=classic;html=1;rounded=0;" edge="1" parent="1">
          <mxGeometry width="50" height="50" relative="1" as="geometry">
            <mxPoint x="1780" y="-370.43" as="sourcePoint" />
            <mxPoint x="1810" y="-370.43" as="targetPoint" />
            <Array as="points">
              <mxPoint x="1790" y="-370.43" />
            </Array>
          </mxGeometry>
        </mxCell>
        <mxCell id="HuvPyexvWib7eKGZbqq8-51" value="trackMedicines()" style="text;html=1;align=center;verticalAlign=middle;whiteSpace=wrap;rounded=0;" vertex="1" parent="1">
          <mxGeometry x="1195" y="-550" width="100" height="30" as="geometry" />
        </mxCell>
        <mxCell id="HuvPyexvWib7eKGZbqq8-55" value="" style="endArrow=classic;html=1;rounded=0;" edge="1" parent="1">
          <mxGeometry width="50" height="50" relative="1" as="geometry">
            <mxPoint x="1620" y="-430.87" as="sourcePoint" />
            <mxPoint x="1650" y="-430.87" as="targetPoint" />
            <Array as="points">
              <mxPoint x="1630" y="-430.87" />
            </Array>
          </mxGeometry>
        </mxCell>
        <mxCell id="HuvPyexvWib7eKGZbqq8-56" value="" style="endArrow=classic;html=1;rounded=0;" edge="1" parent="1">
          <mxGeometry width="50" height="50" relative="1" as="geometry">
            <mxPoint x="1470" y="-470" as="sourcePoint" />
            <mxPoint x="1500" y="-470" as="targetPoint" />
            <Array as="points">
              <mxPoint x="1480" y="-470" />
            </Array>
          </mxGeometry>
        </mxCell>
        <mxCell id="HuvPyexvWib7eKGZbqq8-57" value="" style="endArrow=classic;html=1;rounded=0;" edge="1" parent="1">
          <mxGeometry width="50" height="50" relative="1" as="geometry">
            <mxPoint x="1300" y="-535.0000000000001" as="sourcePoint" />
            <mxPoint x="1330" y="-535.0000000000001" as="targetPoint" />
            <Array as="points">
              <mxPoint x="1310" y="-535.0000000000001" />
            </Array>
          </mxGeometry>
        </mxCell>
        <mxCell id="HuvPyexvWib7eKGZbqq8-60" value="RMStage()" style="text;html=1;align=center;verticalAlign=middle;whiteSpace=wrap;rounded=0;" vertex="1" parent="1">
          <mxGeometry x="1370" y="-485" width="60" height="30" as="geometry" />
        </mxCell>
        <mxCell id="HuvPyexvWib7eKGZbqq8-61" value="&lt;span style=&quot;color: rgb(0, 0, 0); font-family: Helvetica; font-size: 12px; font-style: normal; font-variant-ligatures: normal; font-variant-caps: normal; font-weight: 400; letter-spacing: normal; orphans: 2; text-align: left; text-indent: 0px; text-transform: none; widows: 2; word-spacing: 0px; -webkit-text-stroke-width: 0px; white-space: normal; background-color: rgb(251, 251, 251); text-decoration-thickness: initial; text-decoration-style: initial; text-decoration-color: initial; display: inline !important; float: none;&quot;&gt;ManufactureStage()&lt;/span&gt;" style="text;whiteSpace=wrap;html=1;" vertex="1" parent="1">
          <mxGeometry x="1520" y="-415" width="100" height="40" as="geometry" />
        </mxCell>
        <mxCell id="HuvPyexvWib7eKGZbqq8-62" value="&lt;span style=&quot;color: rgb(0, 0, 0); font-family: Helvetica; font-size: 12px; font-style: normal; font-variant-ligatures: normal; font-variant-caps: normal; font-weight: 400; letter-spacing: normal; orphans: 2; text-align: left; text-indent: 0px; text-transform: none; widows: 2; word-spacing: 0px; -webkit-text-stroke-width: 0px; white-space: normal; background-color: rgb(251, 251, 251); text-decoration-thickness: initial; text-decoration-style: initial; text-decoration-color: initial; display: inline !important; float: none;&quot;&gt;DistributeStage()&lt;/span&gt;" style="text;whiteSpace=wrap;html=1;" vertex="1" parent="1">
          <mxGeometry x="1680" y="-355" width="100" height="40" as="geometry" />
        </mxCell>
        <mxCell id="HuvPyexvWib7eKGZbqq8-63" value="&lt;span style=&quot;color: rgb(0, 0, 0); font-family: Helvetica; font-size: 12px; font-style: normal; font-variant-ligatures: normal; font-variant-caps: normal; font-weight: 400; letter-spacing: normal; orphans: 2; text-align: left; text-indent: 0px; text-transform: none; widows: 2; word-spacing: 0px; -webkit-text-stroke-width: 0px; white-space: normal; background-color: rgb(251, 251, 251); text-decoration-thickness: initial; text-decoration-style: initial; text-decoration-color: initial; display: inline !important; float: none;&quot;&gt;RetailStage()&lt;/span&gt;" style="text;whiteSpace=wrap;html=1;" vertex="1" parent="1">
          <mxGeometry x="1870" y="-310" width="100" height="40" as="geometry" />
        </mxCell>
        <mxCell id="HuvPyexvWib7eKGZbqq8-66" value="" style="endArrow=classic;html=1;rounded=0;" edge="1" parent="1">
          <mxGeometry width="50" height="50" relative="1" as="geometry">
            <mxPoint x="1630" y="-400" as="sourcePoint" />
            <mxPoint x="1650" y="-400" as="targetPoint" />
            <Array as="points" />
          </mxGeometry>
        </mxCell>
        <mxCell id="HuvPyexvWib7eKGZbqq8-70" value="" style="endArrow=classic;html=1;rounded=0;" edge="1" parent="1">
          <mxGeometry width="50" height="50" relative="1" as="geometry">
            <mxPoint x="1470" y="-500" as="sourcePoint" />
            <mxPoint x="1500" y="-500" as="targetPoint" />
            <Array as="points" />
          </mxGeometry>
        </mxCell>
        <mxCell id="HuvPyexvWib7eKGZbqq8-71" value="" style="endArrow=classic;html=1;rounded=0;" edge="1" parent="1">
          <mxGeometry width="50" height="50" relative="1" as="geometry">
            <mxPoint x="1790" y="-340" as="sourcePoint" />
            <mxPoint x="1810" y="-340" as="targetPoint" />
            <Array as="points" />
          </mxGeometry>
        </mxCell>
      </root>
    </mxGraphModel>
  </diagram>
</mxfile>
